<svg width="69" height="57" viewBox="0 0 69 57" fill="none" xmlns="http://www.w3.org/2000/svg">
<path d="M38.0348 9.56943C25.1506 17.3502 17.9969 31.5804 13.6976 45.4973C13.4765 46.2125 13.2063 46.9303 12.9594 47.629C12.269 46.2361 7.55821 34.6682 5.65632 35.3755C4.5448 35.7889 5.18062 37.2744 5.42523 37.8736C7.19579 42.2057 8.92549 46.0894 11.041 50.2786C12.6333 53.4324 15.5963 52.6102 18.5314 51.6504C23.0124 50.185 23.3761 49.7648 27.9656 48.0781C28.7221 47.8 29.5169 47.5752 30.218 47.2277C31.0423 46.8187 31.9262 45.953 31.4885 45.0094C30.9925 43.94 29.9135 44.0155 28.9918 44.4082C28.7994 44.4906 28.604 44.5662 28.4068 44.637C26.2405 45.4148 16.4085 49.5635 16.0811 48.8621C15.9705 48.6259 16.0079 48.3512 16.0497 48.0939C17.2532 40.6718 20.4404 33.6015 24.2057 27.1416C26.739 22.7945 29.9903 18.8679 33.7792 15.5559C36.8237 12.8942 40.2562 10.6344 43.9953 9.07474C48.0047 7.40194 51.885 7.05727 56.1683 6.80285C58.6341 6.65662 56.6811 4.30737 55.3091 4.04275C53.8013 3.75148 52.187 4.27455 50.7222 4.57949C46.0882 5.54657 41.8565 7.26171 38.0348 9.56943Z" fill="#6941C6"/>
</svg>
