<svg width="290" height="111" viewBox="0 0 290 111" fill="none" xmlns="http://www.w3.org/2000/svg">
<path d="M146 2C144.333 2 143 3.33333 143 5C143 6.66667 144.333 8 146 8C147.667 8 149 6.66667 149 5C149 3.33333 147.667 2 146 2Z" fill="white"/>
<path d="M289.061 100.061C289.646 99.4749 289.646 98.5251 289.061 97.9393L279.515 88.3934C278.929 87.8076 277.979 87.8076 277.393 88.3934C276.808 88.9792 276.808 89.9289 277.393 90.5147L285.879 99L277.393 107.485C276.808 108.071 276.808 109.021 277.393 109.607C277.979 110.192 278.929 110.192 279.515 109.607L289.061 100.061ZM144.5 5C144.5 4.16176 145.162 3.5 146 3.5V0.5C143.505 0.5 141.5 2.50491 141.5 5H144.5ZM146 3.5C146.838 3.5 147.5 4.16176 147.5 5H150.5C150.5 2.50491 148.495 0.5 146 0.5V3.5ZM147.5 5C147.5 5.83824 146.838 6.5 146 6.5V9.5C148.495 9.5 150.5 7.49509 150.5 5H147.5ZM146 6.5C145.162 6.5 144.5 5.83824 144.5 5H141.5C141.5 7.49509 143.505 9.5 146 9.5V6.5ZM144.5 8V35H147.5V8H144.5ZM210 100.5H288V97.5H210V100.5ZM144.5 35C144.5 71.1746 173.825 100.5 210 100.5V97.5C175.482 97.5 147.5 69.5178 147.5 35H144.5Z" fill="white"/>
<path d="M146 2C144.333 2 143 3.33333 143 5C143 6.66667 144.333 8 146 8C147.667 8 149 6.66667 149 5C149 3.33333 147.667 2 146 2Z" fill="white"/>
<path d="M0.93934 97.9393C0.353553 98.5251 0.353553 99.4749 0.93934 100.061L10.4853 109.607C11.0711 110.192 12.0208 110.192 12.6066 109.607C13.1924 109.021 13.1924 108.071 12.6066 107.485L4.12132 99L12.6066 90.5147C13.1924 89.9289 13.1924 88.9792 12.6066 88.3934C12.0208 87.8076 11.0711 87.8076 10.4853 88.3934L0.93934 97.9393ZM144.5 5C144.5 4.16176 145.162 3.5 146 3.5V0.5C143.505 0.5 141.5 2.50491 141.5 5H144.5ZM146 3.5C146.838 3.5 147.5 4.16176 147.5 5H150.5C150.5 2.50491 148.495 0.5 146 0.5V3.5ZM147.5 5C147.5 5.83824 146.838 6.5 146 6.5V9.5C148.495 9.5 150.5 7.49509 150.5 5H147.5ZM146 6.5C145.162 6.5 144.5 5.83824 144.5 5H141.5C141.5 7.49509 143.505 9.5 146 9.5V6.5ZM144.5 8V35H147.5V8H144.5ZM82 97.5H2V100.5H82V97.5ZM144.5 35C144.5 69.5178 116.518 97.5 82 97.5V100.5C118.175 100.5 147.5 71.1746 147.5 35H144.5Z" fill="white"/>
</svg>
