<svg width="161" height="134" viewBox="0 0 161 134" fill="none" xmlns="http://www.w3.org/2000/svg">
<path d="M5 2C6.66667 2 8 3.33333 8 5C8 6.66667 6.66667 8 5 8C3.33333 8 2 6.66667 2 5C2 3.33333 3.33333 2 5 2Z" fill="white"/>
<path d="M150.061 133.061C149.475 133.646 148.525 133.646 147.939 133.061L138.393 123.515C137.808 122.929 137.808 121.979 138.393 121.393C138.979 120.808 139.929 120.808 140.515 121.393L149 129.879L157.485 121.393C158.071 120.808 159.021 120.808 159.607 121.393C160.192 121.979 160.192 122.929 159.607 123.515L150.061 133.061ZM6.5 5C6.5 4.16176 5.83824 3.5 5 3.5V0.5C7.4951 0.5 9.5 2.50491 9.5 5H6.5ZM5 3.5C4.16176 3.5 3.5 4.16176 3.5 5H0.5C0.5 2.50491 2.5049 0.5 5 0.5V3.5ZM3.5 5C3.5 5.83824 4.16176 6.5 5 6.5V9.5C2.5049 9.5 0.5 7.49509 0.5 5H3.5ZM5 6.5C5.83824 6.5 6.5 5.83824 6.5 5H9.5C9.5 7.49509 7.4951 9.5 5 9.5V6.5ZM8 3.5H85V6.5H8V3.5ZM150.5 69V132H147.5V69H150.5ZM85 3.5C121.175 3.5 150.5 32.8253 150.5 69H147.5C147.5 34.4822 119.518 6.5 85 6.5V3.5Z" fill="#101828"/>
</svg>
