<svg width="24" height="24" viewBox="0 0 24 24" fill="none" xmlns="http://www.w3.org/2000/svg">
<path d="M18.3035 12.8089L17.7536 12.2989L18.3035 12.8089ZM11.2324 5.73783L11.7425 6.28773L11.2324 5.73783ZM21.6609 4.27232L22.4045 4.36958L21.6609 4.27232ZM19.769 2.38046L19.8663 3.12413L19.769 2.38046ZM6.49434 12.6506L7.16777 12.9808L6.49434 12.6506ZM11.3907 17.547L11.0606 16.8736L11.3907 17.547ZM8.22728 10.1572C7.93438 9.86432 7.45951 9.86432 7.16662 10.1572C6.87372 10.4501 6.87372 10.925 7.16662 11.2179L8.22728 10.1572ZM12.8235 16.8747C13.1164 17.1676 13.5912 17.1676 13.8841 16.8747C14.177 16.5818 14.177 16.107 13.8841 15.8141L12.8235 16.8747ZM6.45951 18.6425C6.7524 18.3496 6.7524 17.8747 6.45951 17.5818C6.16662 17.2889 5.69174 17.2889 5.39885 17.5818L6.45951 18.6425ZM2.57042 20.4103C2.27753 20.7032 2.27753 21.178 2.57042 21.4709C2.86332 21.7638 3.33819 21.7638 3.63108 21.4709L2.57042 20.4103ZM4.33819 16.5212C4.63108 16.2283 4.63108 15.7534 4.33819 15.4605C4.0453 15.1676 3.57042 15.1676 3.27753 15.4605L4.33819 16.5212ZM1.86332 16.8747C1.57042 17.1676 1.57042 17.6425 1.86332 17.9354C2.15621 18.2283 2.63108 18.2283 2.92398 17.9354L1.86332 16.8747ZM8.58083 20.7638C8.87372 20.4709 8.87372 19.996 8.58083 19.7032C8.28794 19.4103 7.81306 19.4103 7.52017 19.7032L8.58083 20.7638ZM6.10596 21.1174C5.81306 21.4103 5.81306 21.8851 6.10596 22.178C6.39885 22.4709 6.87372 22.4709 7.16662 22.178L6.10596 21.1174ZM10.5961 21.082L11.3385 20.9759L10.5961 21.082ZM15.758 17.6172L16.5004 17.5111L15.758 17.6172ZM2.95931 13.4453L3.06538 12.7028L3.06538 12.7028L2.95931 13.4453ZM6.42413 8.2834L6.31807 9.02586L6.31807 9.02586L6.42413 8.2834ZM9.75022 16.63L7.41137 14.2911L6.35071 15.3518L8.68956 17.6906L9.75022 16.63ZM17.7536 12.2989C15.86 14.3406 12.7853 16.028 11.0606 16.8736L11.7209 18.2204C13.4611 17.3673 16.7568 15.5795 18.8534 13.3189L17.7536 12.2989ZM7.16777 12.9808C8.0133 11.256 9.70072 8.18137 11.7425 6.28773L10.7224 5.18793C8.46181 7.28458 6.67406 10.5802 5.82092 12.3205L7.16777 12.9808ZM20.9172 4.17506C20.6134 6.49841 19.806 10.086 17.7536 12.2989L18.8534 13.3189C21.2489 10.7361 22.096 6.72859 22.4045 4.36958L20.9172 4.17506ZM11.7425 6.28773C13.9554 4.23532 17.5429 3.42799 19.8663 3.12413L19.6718 1.6368C17.3128 1.94532 13.3053 2.79243 10.7224 5.18793L11.7425 6.28773ZM22.4045 4.36958C22.6156 2.75571 21.2856 1.42572 19.6718 1.6368L19.8663 3.12413C20.5032 3.04082 21.0005 3.5381 20.9172 4.17506L22.4045 4.36958ZM7.41137 14.2911C7.04819 13.9279 6.95945 13.4057 7.16777 12.9808L5.82092 12.3205C5.31272 13.3571 5.56292 14.564 6.35071 15.3518L7.41137 14.2911ZM8.68956 17.6906C9.47735 18.4784 10.6843 18.7286 11.7209 18.2204L11.0606 16.8736C10.6357 17.0819 10.1134 16.9932 9.75022 16.63L8.68956 17.6906ZM7.16662 11.2179L12.8235 16.8747L13.8841 15.8141L8.22728 10.1572L7.16662 11.2179ZM5.39885 17.5818L2.57042 20.4103L3.63108 21.4709L6.45951 18.6425L5.39885 17.5818ZM3.27753 15.4605L1.86332 16.8747L2.92398 17.9354L4.33819 16.5212L3.27753 15.4605ZM7.52017 19.7032L6.10596 21.1174L7.16662 22.178L8.58083 20.7638L7.52017 19.7032ZM13.177 6.97523C12.1031 8.04917 12.1031 9.79037 13.177 10.8643L14.2377 9.80366C13.7495 9.3155 13.7495 8.52404 14.2377 8.03589L13.177 6.97523ZM13.177 10.8643C14.251 11.9383 15.9922 11.9383 17.0661 10.8643L16.0055 9.80366C15.5173 10.2918 14.7258 10.2918 14.2377 9.80366L13.177 10.8643ZM17.0661 10.8643C18.1401 9.79038 18.1401 8.04917 17.0661 6.97523L16.0055 8.03589C16.4936 8.52404 16.4936 9.3155 16.0055 9.80366L17.0661 10.8643ZM17.0661 6.97523C15.9922 5.90129 14.251 5.90129 13.177 6.97523L14.2377 8.03589C14.7258 7.54773 15.5173 7.54773 16.0055 8.03589L17.0661 6.97523ZM14.9448 17.9354L11.7628 21.1174L12.8235 22.178L16.0055 18.996L14.9448 17.9354ZM11.3385 20.9759L10.9143 18.0061L9.42936 18.2182L9.85362 21.1881L11.3385 20.9759ZM14.7327 15.7434L15.0155 17.7233L16.5004 17.5111L16.2176 15.5312L14.7327 15.7434ZM11.7628 21.1174C11.6171 21.263 11.3677 21.1799 11.3385 20.9759L9.85362 21.1881C10.0576 22.6157 11.8038 23.1977 12.8235 22.178L11.7628 21.1174ZM16.0055 18.996C16.3949 18.6066 16.5783 18.0564 16.5004 17.5111L15.0155 17.7233C15.0266 17.8011 15.0004 17.8797 14.9448 17.9354L16.0055 18.996ZM5.04528 8.03591L1.86329 11.2179L2.92395 12.2786L6.10594 9.09657L5.04528 8.03591ZM2.85324 14.1877L5.82309 14.612L6.03522 13.1271L3.06538 12.7028L2.85324 14.1877ZM8.5101 7.82378L6.5302 7.54094L6.31807 9.02586L8.29797 9.3087L8.5101 7.82378ZM1.86329 11.2179C0.843591 12.2376 1.42566 13.9838 2.85324 14.1877L3.06538 12.7028C2.86144 12.6737 2.77828 12.4242 2.92395 12.2786L1.86329 11.2179ZM6.10594 9.09657C6.16158 9.04093 6.24017 9.01473 6.31807 9.02586L6.5302 7.54094C5.98491 7.46304 5.43477 7.64642 5.04528 8.03591L6.10594 9.09657Z" fill="#640FBF"/>
</svg>
