<?xml version="1.0" encoding="UTF-8"?>
<!DOCTYPE svg PUBLIC "-//W3C//DTD SVG 1.1//EN" "http://www.w3.org/Graphics/SVG/1.1/DTD/svg11.dtd">
<!-- Creator: CorelDRAW -->
<svg xmlns="http://www.w3.org/2000/svg" xml:space="preserve" width="60.3875mm" height="60.3875mm" version="1.1" style="shape-rendering:geometricPrecision; text-rendering:geometricPrecision; image-rendering:optimizeQuality; fill-rule:evenodd; clip-rule:evenodd"
viewBox="0 0 6024.51 6024.51"
 xmlns:xlink="http://www.w3.org/1999/xlink"
 xmlns:xodm="http://www.corel.com/coreldraw/odm/2003">
 <defs>
  <style type="text/css">
   <![CDATA[
    .fil14 {fill:#0B94C2}
    .fil17 {fill:#11AD79}
    .fil16 {fill:#3BD9A4}
    .fil13 {fill:#45C6ED}
    .fil0 {fill:#640FBF}
    .fil11 {fill:gainsboro}
    .fil10 {fill:#F0F0F0}
    .fil9 {fill:#FEFEFE}
    .fil18 {fill:#CF8263;fill-rule:nonzero}
    .fil20 {fill:#FEFEFE;fill-rule:nonzero}
    .fil5 {fill:url(#id0)}
    .fil7 {fill:url(#id1)}
    .fil1 {fill:url(#id2)}
    .fil2 {fill:url(#id3)}
    .fil8 {fill:url(#id4)}
    .fil3 {fill:url(#id5)}
    .fil15 {fill:url(#id6)}
    .fil6 {fill:url(#id7)}
    .fil4 {fill:url(#id8)}
    .fil12 {fill:url(#id9)}
    .fil19 {fill:url(#id10);fill-rule:nonzero}
   ]]>
  </style>
  <linearGradient id="id0" gradientUnits="userSpaceOnUse" x1="5015.33" y1="3358.29" x2="2950.88" y2="3712.55">
   <stop offset="0" style="stop-opacity:1; stop-color:#EBAC92"/>
   <stop offset="1" style="stop-opacity:1; stop-color:#FFE4D6"/>
  </linearGradient>
  <linearGradient id="id1" gradientUnits="userSpaceOnUse" x1="3862.53" y1="4104.4" x2="3970.53" y2="953.34">
   <stop offset="0" style="stop-opacity:1; stop-color:#CC7D5E"/>
   <stop offset="1" style="stop-opacity:1; stop-color:#F2E9DD"/>
  </linearGradient>
  <linearGradient id="id2" gradientUnits="userSpaceOnUse" x1="2957.4" y1="772.37" x2="2957.45" y2="3192.4">
   <stop offset="0" style="stop-opacity:1; stop-color:#F9E31E"/>
   <stop offset="1" style="stop-opacity:1; stop-color:#F18C16"/>
  </linearGradient>
  <linearGradient id="id3" gradientUnits="userSpaceOnUse" x1="3200.63" y1="4720.95" x2="3928.88" y2="4876.52">
   <stop offset="0" style="stop-opacity:1; stop-color:#EBAC92"/>
   <stop offset="1" style="stop-opacity:1; stop-color:#FFDECC"/>
  </linearGradient>
  <linearGradient id="id4" gradientUnits="userSpaceOnUse" xlink:href="#id1" x1="2023.04" y1="5102.73" x2="2108.38" y2="3142.76">
  </linearGradient>
  <linearGradient id="id5" gradientUnits="userSpaceOnUse" xlink:href="#id3" x1="1731.28" y1="4100.45" x2="3073.93" y2="4390.03">
  </linearGradient>
  <linearGradient id="id6" gradientUnits="userSpaceOnUse" x1="5383.16" y1="1584.33" x2="2878.39" y2="6000.1">
   <stop offset="0" style="stop-opacity:1; stop-color:#66FFCC"/>
   <stop offset="1" style="stop-opacity:1; stop-color:#FEFEFE"/>
  </linearGradient>
  <linearGradient id="id7" gradientUnits="userSpaceOnUse" x1="3978.27" y1="4384.73" x2="2470.54" y2="3319.24">
   <stop offset="0" style="stop-opacity:1; stop-color:#DB997D"/>
   <stop offset="1" style="stop-opacity:1; stop-color:#FCCBB1"/>
  </linearGradient>
  <linearGradient id="id8" gradientUnits="userSpaceOnUse" x1="2745.39" y1="4062.08" x2="2720.99" y2="2558.85">
   <stop offset="0" style="stop-opacity:1; stop-color:#BF775A"/>
   <stop offset="1" style="stop-opacity:1; stop-color:#F2E9DD"/>
  </linearGradient>
  <linearGradient id="id9" gradientUnits="userSpaceOnUse" x1="-1868.97" y1="3226.06" x2="-3355.17" y2="-979.67">
   <stop offset="0" style="stop-opacity:1; stop-color:#5CDCFF"/>
   <stop offset="1" style="stop-opacity:1; stop-color:#FEFEFE"/>
  </linearGradient>
  <linearGradient id="id10" gradientUnits="userSpaceOnUse" xlink:href="#id2" x1="2999.09" y1="840.51" x2="2999.12" y2="2074.63">
  </linearGradient>
 </defs>
 <g id="Слой_x0020_1">
  <metadata id="CorelCorpID_0Corel-Layer"/>
  <g id="_2921283644384">
   <circle class="fil0" cx="3012.26" cy="3012.26" r="3012.26"/>
   <polygon class="fil1" points="3012.25,177.97 3483.76,981.03 4393.03,1165.37 3762.76,1854.9 3865.63,2763.01 3004.58,2386.09 2158.89,2763.01 2257.02,1840.53 1631.47,1165.37 2553.15,972.15 "/>
   <g>
    <path class="fil2" d="M3401.03 3926.91c225.77,90.21 529.78,375.43 635.43,456.91 61.51,40.49 111.96,157.57 92.58,224.62 -11.3,38.99 -53.87,115.29 -90.09,145.17 -45.87,37.83 -140.07,31.35 -195.39,19.95 -35.19,-9.2 -57.69,0.3 -51.73,32.07 11.66,107.64 -96.85,224.94 -203.68,215.4 -57.64,-5.75 -70.66,-12.37 -87.7,12.84 -40.89,113.32 -117.02,155.3 -237.83,151.08 -46.64,-3.97 -55.36,-2.22 -79.13,19.48 -44.21,41.29 -106.38,61.82 -160.77,50 -117.45,-25.53 -443.35,-208.19 -527,-277.03 190.32,-197.37 687.63,-846.02 905.31,-1050.51z"/>
    <path class="fil3" d="M3371.99 3893.81c40.53,53.76 56.02,102.49 72.51,143.94 25.2,63.37 -17.27,200.3 -115.5,256.57 -57.71,33.13 -84.2,65.78 -90.76,124.95 -8.51,76.99 -29.33,139.82 -117.56,177.23 -49.6,21.05 -77.48,63.55 -85.14,114.76 -11.69,77.95 -24.69,133.7 -110.67,152.31 -111.25,24.06 -99.13,117.22 -168.86,180.91 -17.32,15.82 -42.02,34.65 -62.05,38.07 -120.55,20.59 -273.77,-166.58 -339.54,-228.01 -221.66,-207.17 -370.26,-356.9 -694.53,-683.01 -319.01,-149.63 -756.7,-353.55 -1112.51,-511.38 -5.35,-42.16 -9.61,-84.67 -12.75,-127.48 48.03,-11.71 93.72,-39.42 89.7,-125.67 298.03,-140.6 590.44,-631.35 641.81,-755.03 280.58,173.24 611.42,498.79 937.59,687.76 192.66,111.64 319.75,59.31 478.07,42.6 62.74,-6.66 108.93,-11.35 154.04,-2.46 51.97,10.15 206.15,107.51 404.49,185.04 29.34,66.75 -58.91,82.6 -55.15,162.03 2.49,52.6 199.92,56.22 208.88,96.55 50.49,34.33 2.01,46.84 -25.86,65.77 1.36,1.52 2.67,3.07 3.78,4.53z"/>
    <path class="fil4" d="M3422.72 3947.77c247.94,43.63 499.58,379.16 630.47,413.42 130.88,34.27 118.88,-526.54 64.04,-567.03 -54.85,-40.5 -425.25,-90.03 -576.08,-99.02 -150.93,-8.97 -434.39,63.01 -521.31,81.02 -33.01,6.85 -82.6,35.21 -131.4,67.7 -75.19,11.74 -139.87,26.45 -139.87,26.45 -117.67,51.98 -235.39,86.01 -353.08,138 135.49,250.1 413.92,123.73 535.81,11.84 52.63,14.63 239.97,-49.82 331.69,-103.79 60.55,4.53 127.49,16.65 159.72,31.41z"/>
    <path class="fil5" d="M3769.09 3381.96c-139.64,62.72 -302.3,-10.23 -546.25,-0.87 -99.46,28.93 -364.54,166.13 -465.49,218.76 -44.3,39.25 -101.59,120.93 -158.09,167.05l-225.81 184.25c28.32,146.11 183.95,186.29 337.51,102.84 61.04,-33.17 134.23,-87.53 187.28,-132.14 113.61,-0.57 201.08,-58.81 322.42,-102.1 138.84,-29.93 599.25,394.55 850.63,584.38 91.16,-76.07 170.55,-152.51 197.91,-316.56 156.26,-130.9 759.6,-163.9 1198.96,-363.53 18.7,-120.97 28.4,-244.83 28.4,-370.9 0,-364.07 -80.96,-709.46 -225.89,-1019.95 -31.26,-4.37 -63.23,-3.32 -95.72,4.01 -660.56,290.83 -1039.17,880.03 -1405.87,1044.76z"/>
    <path class="fil6" d="M3880.53 3549.07c-139.53,62.66 -413.76,-62.46 -657.69,-53.06 -129.1,37.5 -297.22,103.55 -419.57,165.1 -74.53,37.51 -161.8,105.36 -103.9,167.79 67.45,72.67 2.92,101.73 -112.14,188.94 -38.63,36.18 -14.27,74.87 35.68,69.32 96.02,-10.67 244.97,-125.96 279.64,-147.72 102.05,5.67 226.43,-54.91 271.81,-80.78 65.02,-37.03 109.01,-19.44 164.52,18.8 254.49,175.33 473.96,336.49 732.39,526.68 91.19,-76.07 170.58,-152.51 197.93,-316.56 156.26,-130.89 759.56,-163.9 1198.97,-363.53 18.7,-120.97 28.4,-244.83 28.4,-370.9 0,-226.82 -31.51,-446.34 -90.23,-654.74 -176.68,26.74 -403.81,134.64 -616.06,270.74 -365.74,234.48 -673.41,473.79 -909.75,579.94z"/>
    <path class="fil7" d="M5495.25 3276.75c-411.71,192.02 -859.59,278.2 -1340.24,391.09 -71.6,16.81 -82.75,52.14 -27.49,113.63 158.06,175.91 -120.86,348.52 -377.91,388.88 78.54,53.91 272.94,217.6 316.55,237.21 150.93,-60.87 193.76,-182.32 239.09,-287.23 155.94,-130.65 730.54,-188.25 1162.48,-393.58 19,-121.84 28.83,-246.61 28.83,-373.61 0,-25.6 -0.54,-51 -1.32,-76.39z"/>
    <path class="fil8" d="M2032.87 4543.73c-113.68,112.68 -14.38,310.76 144.82,281.77 -80.03,126.21 93.7,246.33 214.82,212.61 -44.92,99.92 157.12,204.44 263.21,115.15 -9.86,113 177.77,213.88 261.98,61.55 11.61,-21.01 -1.11,-55.94 -29.39,-81.14 -49.47,-44.1 -140.78,-73.15 -190.9,-50.6 -6.52,-94.64 -180.2,-138.36 -238,-132.79 21.75,-82.16 -135.02,-229.37 -209.65,-194.01 34.34,-119.14 -108.06,-258.71 -216.89,-212.55z"/>
    <g>
     <g>
      <path class="fil9" d="M1692.97 4184.31c-80.41,-40.14 -194.55,-98.97 -340.58,-131.99l-0.04 -0.01c109.79,-362.38 335.1,-740.68 581.31,-971.28 10.28,-8.19 216.13,153.68 289.21,209.89 27.21,20.99 40.83,44.62 16.45,68.58 -227.97,223.99 -389.08,526.56 -546.35,824.81z"/>
      <path class="fil10" d="M1700.16 4155.96c-80.44,-40.1 -195.41,-69.2 -341.43,-102.22l-0.02 -0.06c72.4,-279.65 186.58,-492.79 342.67,-699.86 110.25,81.62 252.67,188.59 337,245.67 -122.53,171.4 -218.76,340.76 -338.22,556.47z"/>
      <path class="fil11" d="M1500.26 3677.36c127,66.92 276.86,133.29 363.48,188.77 -61.91,110.9 -130.47,240.72 -174.91,344.16 -13.97,32.7 -42.53,62.73 -108.23,32.3l-195.23 -85.92c-58.44,-18.91 -53.09,-45.4 -40.67,-82.8 37.16,-121.6 98.05,-299.42 155.56,-396.51z"/>
     </g>
     <path class="fil12" d="M1313.88 4298.24l-1232.63 -588.85c-53.02,-223.77 -81.25,-457.15 -81.25,-697.13 0,-428.58 89.7,-836.15 251.04,-1205.24l1819.98 1294.93c39.23,27.9 49.93,53.17 8.35,93.8 -233.61,228.45 -455.47,589.28 -648.41,1063.12 -16.19,39.03 -40.15,62.47 -117.08,39.38z"/>
     <path class="fil13" d="M1486.31 4127.9c-88.82,-23.17 -826.93,-327.97 -1439.3,-582.66 -30.89,-172.99 -47.01,-351.1 -47.01,-532.97 0,-233.92 26.67,-461.62 77.12,-680.2 729.19,446.29 1712.36,1001.49 1812.68,1081.59 -142.5,189.13 -278.41,428.85 -403.49,714.24z"/>
     <path class="fil14" d="M0.38 2982.53c674.29,306.94 1551.06,731.07 1668.37,774.86 -82.95,149.24 -162.58,316.76 -237.79,501.47 -16.19,39.03 -40.15,62.47 -117.08,39.38l-1232.4 -587.9c-53.17,-224.06 -81.48,-457.76 -81.48,-698.08 0,-9.94 0.29,-19.81 0.38,-29.73z"/>
    </g>
    <g>
     <g>
      <path class="fil9" d="M4331.52 4184.31c80.42,-40.14 194.56,-98.97 340.59,-131.99l0.03 -0.01c-109.8,-362.38 -335.1,-740.68 -581.32,-971.28 -10.26,-8.19 -216.11,153.68 -289.19,209.89 -27.21,20.99 -40.86,44.62 -16.45,68.58 227.96,223.99 389.08,526.56 546.34,824.81z"/>
      <path class="fil10" d="M4324.34 4155.96c80.43,-40.1 195.41,-69.2 341.41,-102.22l0.05 -0.06c-72.42,-279.65 -186.59,-492.79 -342.68,-699.86 -110.24,81.62 -252.67,188.59 -336.99,245.67 122.53,171.4 218.75,340.76 338.21,556.47z"/>
      <path class="fil11" d="M4524.23 3677.36c-127,66.92 -276.88,133.29 -363.46,188.77 61.89,110.9 130.45,240.72 174.9,344.16 13.98,32.7 42.53,62.73 108.24,32.3l195.22 -85.92c58.45,-18.91 53.09,-45.4 40.66,-82.8 -37.16,-121.6 -98.03,-299.42 -155.56,-396.51z"/>
     </g>
     <path class="fil15" d="M4710.62 4298.24l1236.03 -602.73c50.91,-219.53 77.87,-448.24 77.87,-683.26 0,-435.39 -92.52,-849.12 -258.74,-1222.84l-1812.3 1312.53c-38.97,28.23 -49.93,53.17 -8.35,93.8 233.61,228.45 455.47,589.28 648.41,1063.12 16.2,39.03 40.17,62.47 117.08,39.38z"/>
     <path class="fil16" d="M4538.21 4127.9c83.13,-21.69 849.16,-335.81 1440.58,-590.37 30,-170.59 45.73,-346.08 45.73,-525.26 0,-249.91 -30.64,-492.62 -88,-724.81 -681.54,424.27 -1676.12,1025.81 -1801.82,1126.2 142.52,189.13 278.43,428.85 403.52,714.24z"/>
     <path class="fil17" d="M6024 2972.52c-647.08,305.68 -1523.5,730.84 -1668.25,784.88 82.95,149.24 162.57,316.76 237.78,501.47 16.2,39.03 40.17,62.47 117.08,39.38l1233.36 -591.76c52.58,-222.88 80.54,-455.27 80.54,-694.22 0,-13.29 -0.34,-26.5 -0.51,-39.75z"/>
    </g>
    <path class="fil18" d="M3791.98 4807.33l-301.9 -192.75c-13.67,-8.64 -17.62,-26.54 -8.86,-39.97 8.76,-13.42 26.92,-17.38 40.62,-8.74l326.99 208.74 -5.27 -1.05c-35.19,-9.2 -57.69,0.3 -51.73,32.07l0.14 1.7zm-205.92 213.48c-55.84,-5.72 -68.8,-11.82 -85.6,13.07l-0.44 1.13 -262.07 -168.06c-13.67,-8.62 -17.63,-26.52 -8.87,-39.96 8.76,-13.42 26.96,-17.33 40.62,-8.75l316.35 202.57zm-323.83 164.11c-45.97,-3.9 -54.93,-2.12 -78.3,19.16l-178.9 -114.24c-13.65,-8.59 -17.55,-26.49 -8.84,-39.94 8.76,-13.43 26.95,-17.33 40.63,-8.73l225.41 143.74z"/>
   </g>
   <path class="fil19" d="M3001.39 1514.61c125.37,0 218.11,29.25 278.23,87.78 173.25,168.62 114.28,441.4 -83.13,548.51 -58.41,31.7 -130.68,47.55 -216.82,47.55 -63.11,0 -125.58,-8.8 -187.42,-26.34 -61.81,-17.54 -135.98,-42.41 -180.31,-74.6l90.82 -230.33c35.82,27.33 96.33,48.3 139.4,62.92 43.06,14.65 86.35,21.94 129.82,21.94 43.5,0 78.27,-9.5 104.25,-28.52 26,-19.03 39.01,-45.59 39.01,-79.73 0,-34.13 -12.78,-59.99 -38.38,-77.54 -25.57,-17.55 -70.77,-26.34 -135.58,-26.34l-243.06 0 44.78 -549.11 570.51 0 0 223.84 -364.58 2.17 -7.66 97.79 60.11 0z"/>
   <path class="fil20" d="M3001.56 1443.01c121.79,0 211.88,28.41 270.25,85.27 168.28,163.77 111.02,428.73 -80.76,532.76 -56.72,30.8 -126.93,46.19 -210.58,46.19 -61.31,0 -121.99,-8.56 -182.04,-25.56 -60.03,-17.07 -111.62,-41.22 -154.68,-72.5l88.21 -223.71c34.8,26.54 73.1,46.91 114.93,61.13 41.83,14.23 83.85,21.31 126.11,21.31 42.24,0 76.01,-9.25 101.28,-27.7 25.24,-18.49 37.87,-44.3 37.87,-77.46 0,-33.15 -12.41,-58.26 -37.26,-75.31 -24.86,-17.04 -68.75,-25.58 -131.7,-25.58l-236.09 0 43.5 -533.36 554.16 0 0 217.43 -354.1 2.11 -7.46 95 58.37 0z"/>
  </g>
 </g>
</svg>
