<svg aria-hidden="true" xmlns="http://www.w3.org/2000/svg" xmlns:xlink="http://www.w3.org/1999/xlink"><symbol viewBox="0 0 24 24" fill="none" id="icon-burger" xmlns="http://www.w3.org/2000/svg">
<path fill-rule="evenodd" clip-rule="evenodd" d="M22 7V5H2V7H22ZM22 9V11H2V9H22ZM22 15V13H2V15H22ZM22 19V17H2V19H22Z" fill="currentColor"/>
</symbol><symbol viewBox="0 0 24 24" fill="none" id="icon-close" xmlns="http://www.w3.org/2000/svg">
<path fill-rule="evenodd" clip-rule="evenodd" d="M12 10.5858L18.364 4.22183L19.7782 5.63604L13.4143 12L19.7782 18.364L18.364 19.7782L12 13.4142L5.63608 19.7782L4.22187 18.364L10.5858 12L4.22187 5.63604L5.63608 4.22183L12 10.5858Z" fill="currentColor"/>
</symbol><symbol viewBox="0 0 24 24" fill="none" id="icon-profile" xmlns="http://www.w3.org/2000/svg">
<circle cx="4" cy="4" r="4" transform="matrix(-1 0 0 1 16 3)" stroke="currentColor" stroke-width="1.5"/>
<path d="M5 16.9347C5 16.0743 5.54085 15.3068 6.35109 15.0175V15.0175C10.004 13.7128 13.996 13.7128 17.6489 15.0175V15.0175C18.4591 15.3068 19 16.0743 19 16.9347V18.2502C19 19.4376 17.9483 20.3498 16.7728 20.1818L15.8184 20.0455C13.2856 19.6837 10.7144 19.6837 8.18162 20.0455L7.22721 20.1818C6.0517 20.3498 5 19.4376 5 18.2502V16.9347Z" stroke="currentColor" stroke-width="1.5"/>
</symbol><symbol viewBox="0 0 32 32" fill="none" id="icon-tg" xmlns="http://www.w3.org/2000/svg">
<path d="M12.524 23.9715L12.8347 19.2168L21.3569 11.4385C21.7342 11.09 21.2792 10.9214 20.7799 11.2249L10.2603 17.9579L5.7107 16.4967C4.73421 16.2157 4.72311 15.53 5.93264 15.0354L23.6539 8.11134C24.4639 7.7404 25.2407 8.31366 24.93 9.57259L21.9117 23.9715C21.7009 24.9944 21.0906 25.2417 20.2472 24.7696L15.6532 21.33L13.445 23.4994C13.1898 23.758 12.979 23.9715 12.524 23.9715Z" fill="currentColor"/>
</symbol><symbol viewBox="0 0 32 32" fill="none" id="icon-wh" xmlns="http://www.w3.org/2000/svg">
<path d="M20.75 17.96C21 18.09 21.16 18.16 21.21 18.26C21.27 18.37 21.25 18.87 21 19.44C20.8 20 19.76 20.54 19.3 20.56C18.84 20.58 18.83 20.92 16.34 19.83C13.85 18.74 12.35 16.08 12.23 15.91C12.11 15.74 11.27 14.53 11.31 13.3C11.36 12.08 12 11.5 12.26 11.26C12.5 11 12.77 10.97 12.94 11H13.41C13.56 11 13.77 10.94 13.96 11.45L14.65 13.32C14.71 13.45 14.75 13.6 14.66 13.76L14.39 14.17L14 14.59C13.88 14.71 13.74 14.84 13.88 15.09C14 15.35 14.5 16.18 15.2 16.87C16.11 17.75 16.91 18.04 17.15 18.17C17.39 18.31 17.54 18.29 17.69 18.13L18.5 17.19C18.69 16.94 18.85 17 19.08 17.08L20.75 17.96ZM16 6C17.3132 6 18.6136 6.25866 19.8268 6.7612C21.0401 7.26375 22.1425 8.00035 23.0711 8.92893C23.9997 9.85752 24.7362 10.9599 25.2388 12.1732C25.7413 13.3864 26 14.6868 26 16C26 18.6522 24.9464 21.1957 23.0711 23.0711C21.1957 24.9464 18.6522 26 16 26C14.03 26 12.2 25.43 10.65 24.45L6 26L7.55 21.35C6.57 19.8 6 17.97 6 16C6 13.3478 7.05357 10.8043 8.92893 8.92893C10.8043 7.05357 13.3478 6 16 6ZM16 8C13.8783 8 11.8434 8.84285 10.3431 10.3431C8.84285 11.8434 8 13.8783 8 16C8 17.72 8.54 19.31 9.46 20.61L8.5 23.5L11.39 22.54C12.69 23.46 14.28 24 16 24C18.1217 24 20.1566 23.1571 21.6569 21.6569C23.1571 20.1566 24 18.1217 24 16C24 13.8783 23.1571 11.8434 21.6569 10.3431C20.1566 8.84285 18.1217 8 16 8Z" fill="currentColor"/>
</symbol></svg>